<?xml version="1.0" standalone="no"?>
<!DOCTYPE svg PUBLIC "-//W3C//DTD SVG 20010904//EN"
 "http://www.w3.org/TR/2001/REC-SVG-20010904/DTD/svg10.dtd">
<svg version="1.0" xmlns="http://www.w3.org/2000/svg"
 width="549.000000pt" height="549.000000pt" viewBox="0 0 549.000000 549.000000"
 preserveAspectRatio="xMidYMid meet">
<metadata>
Created by potrace 1.14, written by Peter Selinger 2001-2017
</metadata>
<g transform="translate(0.000000,549.000000) scale(0.100000,-0.100000)"
fill="#000000" stroke="none">
<path d="M2547 5209 c-120 -28 -245 -127 -299 -237 -31 -63 -33 -73 -33 -177
0 -104 2 -114 33 -177 42 -85 126 -164 216 -204 l66 -28 0 -241 c0 -132 -3
-459 -7 -726 l-6 -487 -61 -7 c-162 -18 -389 -97 -538 -186 l-82 -49 -40 38
c-330 312 -616 585 -616 587 0 1 12 29 27 61 36 78 44 206 18 285 -53 159
-188 272 -362 301 -195 33 -404 -73 -489 -247 -27 -55 -29 -69 -29 -170 0
-104 2 -114 32 -175 78 -157 231 -250 413 -250 82 0 180 24 236 59 l31 19 321
-305 322 -305 -66 -72 c-341 -368 -421 -872 -205 -1291 20 -38 37 -73 39 -77
2 -3 -81 -72 -184 -151 l-187 -145 -64 44 c-93 64 -181 88 -298 82 -81 -4
-104 -10 -169 -41 -102 -48 -167 -111 -214 -206 -35 -72 -37 -80 -37 -176 0
-94 2 -105 34 -169 94 -192 318 -295 526 -241 222 58 373 266 338 468 l-10 58
41 33 c23 18 104 82 181 141 77 59 146 112 153 118 9 7 30 -7 80 -55 195 -188
427 -309 712 -369 151 -32 419 -32 570 0 533 114 924 471 1032 944 l22 97 121
0 c145 0 255 -10 255 -22 0 -32 62 -127 115 -177 174 -162 424 -174 612 -29
151 116 204 325 125 491 -126 268 -483 342 -721 149 -49 -40 -116 -137 -126
-182 l-7 -30 -92 0 c-51 0 -134 3 -184 6 l-91 7 -6 46 c-58 446 -352 816 -791
992 -107 44 -271 86 -364 94 -36 4 -75 8 -87 11 l-23 4 0 539 c0 296 3 619 7
719 l6 180 33 6 c18 4 64 22 103 42 82 41 156 116 198 202 26 52 28 67 28 167
0 104 -2 114 -33 177 -55 112 -165 199 -295 234 -58 15 -171 17 -230 3z m-575
-3044 c94 -20 149 -46 206 -99 187 -175 150 -552 -65 -668 -85 -46 -157 -62
-283 -62 -63 0 -136 3 -162 8 l-48 7 0 404 0 405 23 5 c81 18 246 18 329 0z
m863 -77 c50 -110 149 -356 223 -553 33 -88 63 -168 67 -177 6 -16 0 -18 -58
-18 l-65 0 -37 105 -38 105 -190 -2 -190 -3 -35 -102 -35 -103 -59 0 c-32 0
-58 4 -58 9 0 32 248 659 306 774 l24 47 54 0 53 0 38 -82z m843 -245 c-5
-346 -7 -366 -54 -430 -54 -72 -171 -106 -291 -84 -69 13 -143 44 -143 62 0 5
9 27 20 49 l20 39 50 -26 c60 -31 157 -35 208 -9 65 33 67 46 70 404 l3 322
60 0 61 0 -4 -327z"/>
<path d="M1737 2073 c-4 -3 -7 -148 -7 -321 l0 -314 123 4 c113 3 126 5 177
33 60 33 111 98 130 163 15 54 12 191 -5 248 -17 59 -73 127 -124 153 -20 11
-63 24 -96 30 -65 12 -188 15 -198 4z"/>
<path d="M2706 1963 c-41 -99 -116 -296 -116 -305 0 -4 68 -8 151 -8 l150 0
-7 23 c-17 57 -139 357 -144 357 -4 0 -19 -30 -34 -67z"/>
</g>
</svg>
